<svg xmlns="http://www.w3.org/2000/svg" xmlns:xlink="http://www.w3.org/1999/xlink" width="120" height="120" version="1.1"><rect id="backgroundrect" width="100%" height="100%" x="0" y="0" fill="none" stroke="none"/>

<g class="currentLayer" style=""><title>Layer 1</title><g id="surface1" class="selected" stroke="#ffffff" stroke-opacity="1" fill="#ffffff" fill-opacity="1">
<path style="fill-rule: evenodd;" d="M 110 0 L 10 0 L 10 120 L 80 120 L 110 90 Z M 75 115 L 15 115 L 15 5 L 105 5 L 105 85 L 75 85 Z M 80 90 L 102.929688 90 L 80 112.929688 Z M 65 95 L 25 95 L 25 100 L 65 100 Z M 65 80 L 25 80 L 25 85 L 65 85 Z M 95 70 L 95 65 L 25 65 L 25 70 Z M 95 50 L 75 50 L 75 55 L 95 55 Z M 64.96875 55 L 25.015625 55 L 25 51.054688 C 24.984375 47.453125 24.96875 42.980469 31.570312 41.453125 C 38.984375 39.75 37.75 39.363281 37.359375 38.640625 C 31.96875 28.699219 33.808594 22.773438 35.386719 20.125 C 37.324219 16.871094 40.828125 15 45 15 C 49.136719 15 52.613281 16.839844 54.550781 20.054688 C 57.273438 24.574219 56.59375 31.164062 52.65625 38.621094 C 52.128906 39.601562 51.679688 39.894531 58.25 41.414062 C 65.023438 42.976562 65.011719 47.476562 65 51.09375 Z M 30 50 L 60 50 C 59.964844 47.265625 59.648438 46.871094 57.300781 46.328125 C 53.023438 45.339844 49.15625 44.449219 47.796875 41.46875 C 47.085938 39.914062 47.230469 38.171875 48.230469 36.273438 C 51.28125 30.519531 52.019531 25.546875 50.265625 22.628906 C 48.886719 20.339844 46.375 20 45 20 C 42.601562 20 40.714844 20.949219 39.683594 22.683594 C 37.925781 25.636719 38.679688 30.585938 41.753906 36.253906 C 42.773438 38.140625 42.933594 39.890625 42.230469 41.449219 C 40.886719 44.441406 37.050781 45.320312 32.996094 46.261719 C 30.371094 46.863281 30.03125 47.269531 30 50 Z M 95 40 L 95 35 L 75 35 L 75 40 Z M 95 20 L 75 20 L 75 25 L 95 25 Z M 95 20 " id="svg_1" stroke="#ffffff" stroke-opacity="1" fill="#ffffff" fill-opacity="1"/>
</g></g></svg>